<svg version="1.1" xmlns="http://www.w3.org/2000/svg" width="18" height="18" viewBox="0 0 18 18">
<path d="M13.464 11.648c0-0.2-0.082-0.386-0.223-0.527l-2.121-2.121 2.121-2.121c0.141-0.141 0.223-0.328 0.223-0.527s-0.082-0.399-0.223-0.539l-1.055-1.055c-0.141-0.141-0.34-0.223-0.539-0.223s-0.386 0.082-0.527 0.223l-2.121 2.121-2.121-2.121c-0.141-0.141-0.328-0.223-0.527-0.223s-0.399 0.082-0.539 0.223l-1.055 1.055c-0.141 0.141-0.223 0.34-0.223 0.539s0.082 0.386 0.223 0.527l2.121 2.121-2.121 2.121c-0.141 0.141-0.223 0.328-0.223 0.527s0.082 0.399 0.223 0.539l1.055 1.055c0.141 0.141 0.34 0.223 0.539 0.223s0.386-0.082 0.527-0.223l2.121-2.121 2.121 2.121c0.141 0.141 0.328 0.223 0.527 0.223s0.399-0.082 0.539-0.223l1.055-1.055c0.141-0.141 0.223-0.34 0.223-0.539zM18 9c0 4.969-4.031 9-9 9s-9-4.031-9-9 4.031-9 9-9 9 4.031 9 9z"></path>
</svg>
