<svg version="1.1" xmlns="http://www.w3.org/2000/svg" width="18" height="18" viewBox="0 0 18 18">
<path d="M12 14.625v-1.875c0-0.211-0.164-0.375-0.375-0.375h-1.125v-6c0-0.211-0.164-0.375-0.375-0.375h-3.75c-0.211 0-0.375 0.164-0.375 0.375v1.875c0 0.211 0.164 0.375 0.375 0.375h1.125v3.75h-1.125c-0.211 0-0.375 0.164-0.375 0.375v1.875c0 0.211 0.164 0.375 0.375 0.375h5.25c0.211 0 0.375-0.164 0.375-0.375zM10.499 4.124v-1.875c0-0.211-0.164-0.375-0.375-0.375h-2.251c-0.211 0-0.375 0.164-0.375 0.375v1.875c0 0.211 0.164 0.375 0.375 0.375h2.251c0.211 0 0.375-0.164 0.375-0.375zM18 9c0 4.969-4.031 9-9 9s-9-4.031-9-9 4.031-9 9-9 9 4.031 9 9z"></path>
</svg>
