<svg width="150" height="170" fill="none" xmlns="http://www.w3.org/2000/svg"><path fill-rule="evenodd" clip-rule="evenodd" d="M148.097 93.435a19.529 19.529 0 01-3.205 4.784 19.44 19.44 0 01-4.912 3.906L29.487 167.288c-9.313 5.492-21.304 2.376-26.783-6.962-5.478-9.337-2.37-21.359 6.944-26.851L91.844 85 9.648 36.524C.335 31.032-2.774 19.01 2.704 9.673 8.183.336 20.174-2.781 29.487 2.71L139.98 67.875a19.554 19.554 0 018.118 8.69A19.545 19.545 0 01150 85a19.536 19.536 0 01-1.903 8.435z" fill="#FF6228"/></svg>
