<svg version="1.1" xmlns="http://www.w3.org/2000/svg" width="18" height="18" viewBox="0 0 18 18">
<path d="M15.046 7.102c0-0.2-0.070-0.399-0.211-0.539l-1.066-1.055c-0.141-0.141-0.328-0.223-0.527-0.223s-0.386 0.082-0.527 0.223l-4.781 4.77-2.648-2.648c-0.141-0.141-0.328-0.223-0.527-0.223s-0.386 0.082-0.527 0.223l-1.066 1.055c-0.141 0.141-0.211 0.34-0.211 0.539s0.070 0.386 0.211 0.527l4.242 4.242c0.141 0.141 0.34 0.223 0.527 0.223 0.2 0 0.399-0.082 0.539-0.223l6.363-6.363c0.141-0.141 0.211-0.328 0.211-0.527zM18 9c0 4.969-4.031 9-9 9s-9-4.031-9-9 4.031-9 9-9 9 4.031 9 9z"></path>
</svg>
