<svg version="1.1" xmlns="http://www.w3.org/2000/svg" width="18" height="18" viewBox="0 0 18 18">
<path d="M9 0c4.969 0 9 4.031 9 9s-4.031 9-9 9-9-4.031-9-9 4.031-9 9-9zM10.5 14.613v-2.226c0-0.211-0.164-0.386-0.363-0.386h-2.251c-0.211 0-0.386 0.176-0.386 0.386v2.226c0 0.211 0.176 0.386 0.386 0.386h2.251c0.2 0 0.363-0.176 0.363-0.386zM10.477 10.582l0.211-7.278c0-0.082-0.035-0.164-0.117-0.211-0.070-0.058-0.176-0.093-0.281-0.093h-2.578c-0.105 0-0.211 0.035-0.281 0.093-0.082 0.047-0.117 0.128-0.117 0.211l0.2 7.278c0 0.164 0.176 0.293 0.399 0.293h2.168c0.211 0 0.386-0.128 0.399-0.293z"></path>
</svg>
